Coordinates
version=1
nRows=16
nColumns=33
inDegrees=yes

Units are S.I. units (second, meters, Newtons, ...)
Angles are in degrees.

endheader
time	ground_thorax_rot_x	ground_thorax_rot_y	ground_thorax_rot_z	ground_thorax_tx	ground_thorax_ty	ground_thorax_tz	clav_prot_r	clav_elev_r	scapula_abduction_r	scapula_elevation_r	scapula_upward_rot_r	scapula_winging_r	shoulder_elv_r	plane_of_elev_r	axial_rot_r	elbow_flexion_r	pro_sup_r	wrist_flex_r	wrist_dev_r	clav_prot_l	clav_elev_l	scapula_abduction_l	scapula_elevation_l	scapula_upward_rot_l	scapula_winging_l	shoulder_elv_l	plane_of_elev_l	axial_rot_l	elbow_flexion_l	pro_sup_l	wrist_flex_l	wrist_dev_l	
8.3800	-90.000000	90.000000	-90.000000	-127.556915	861.425885	-44.518894	31.067153	33.889363	45.000000	45.000000	17.518556	2146.274999	2991.158933	33.438444	-22.964795	2518.379557	156.759679	15.013919	14.753191	-45.000000	20.607159	36.688183	-16.819992	45.000000	2625.092879	-5454.361745	134.955514	21.499417	1429.250442	-322.929104	15.162533	-19.974953	
8.3900	-90.000000	90.000000	-90.000000	-127.440848	861.550053	-44.353445	30.960856	33.882459	45.000000	45.000000	17.563110	2146.209424	2991.129064	33.433114	-23.034666	2518.364519	157.028786	15.226568	14.660550	-45.000000	20.577929	36.694892	-16.741925	45.000000	2625.052436	-5454.282284	134.959497	21.756813	1429.247853	-322.950735	15.105618	-20.160987	
8.4000	-90.000000	90.000000	-90.000000	-127.315192	861.640122	-44.186793	30.827786	33.841738	45.000000	45.000000	17.603157	2146.145259	2991.092944	33.410968	-23.105786	2518.370866	157.302251	15.437578	14.552284	-45.000000	20.534762	36.700830	-16.671906	45.000000	2625.015717	-5454.212683	134.969419	22.026698	1429.232346	-322.954453	15.044161	-20.337232	
8.4100	-90.000000	90.000000	-90.000000	-127.168696	861.650868	-44.016080	30.753143	33.839511	45.000000	45.000000	17.634789	2146.080564	2991.063241	33.389438	-23.206771	2518.367517	157.594327	15.631459	14.463517	-45.000000	20.523781	36.698072	-16.629032	45.000000	2624.993247	-5454.152145	134.980318	22.245729	1429.237697	-322.914411	14.978063	-20.510778	
8.4200	-90.000000	90.000000	-90.000000	-126.998887	861.585292	-43.842155	30.703204	33.854665	45.000000	45.000000	17.649189	2146.004736	2991.043664	33.376854	-23.333115	2518.359390	157.899264	15.811164	14.393541	-45.000000	20.533984	36.687718	-16.608592	45.000000	2624.983546	-5454.101759	134.991894	22.438439	1429.252705	-322.839031	14.902881	-20.678837	
8.4300	-90.000000	90.000000	-90.000000	-126.800846	861.441581	-43.665008	30.676475	33.866389	45.000000	45.000000	17.659874	2145.942108	2991.018654	33.336438	-23.491245	2518.359867	158.205791	15.977708	14.310020	-45.000000	20.556696	36.668991	-16.615699	45.000000	2624.987292	-5454.068902	135.010975	22.608935	1429.275333	-322.730155	14.824110	-20.836087	
8.4400	-90.000000	90.000000	-90.000000	-126.570954	861.231511	-43.485265	30.660224	33.885143	45.000000	45.000000	17.648179	2145.870033	2991.005762	33.302973	-23.676284	2518.355798	158.508945	16.125645	14.243792	-45.000000	20.598835	36.645265	-16.636245	45.000000	2624.996976	-5454.037326	135.028379	22.772206	1429.308503	-322.601293	14.737538	-20.985724	
8.4500	-90.000000	90.000000	-90.000000	-126.304873	860.972317	-43.303322	30.646474	33.885204	45.000000	45.000000	17.628779	2145.808144	2990.988398	33.246197	-23.888864	2518.361414	158.790606	16.258548	14.165778	-45.000000	20.646577	36.617416	-16.678595	45.000000	2625.019129	-5454.022620	135.052418	22.940540	1429.340118	-322.463408	14.649785	-21.124332	
8.4600	-90.000000	90.000000	-90.000000	-125.996400	860.679950	-43.119454	30.635672	33.892939	45.000000	45.000000	17.581877	2145.729993	2990.988996	33.210522	-24.124433	2518.354962	159.044509	16.370561	14.115240	-45.000000	20.712419	36.589073	-16.726985	45.000000	2625.046286	-5454.002383	135.073600	23.121909	1429.377098	-322.327808	14.558357	-21.255001	
8.4700	-90.000000	90.000000	-90.000000	-125.637136	860.368231	-42.934003	30.629372	33.886996	45.000000	45.000000	17.526684	2145.661852	2990.986910	33.156157	-24.382473	2518.352450	159.256401	16.462231	14.064382	-45.000000	20.784466	36.559604	-16.789106	45.000000	2625.085230	-5453.987211	135.100484	23.323947	1429.412162	-322.197531	14.472161	-21.375664	
8.4800	-90.000000	90.000000	-90.000000	-125.217092	860.048704	-42.748077	30.623203	33.889570	45.000000	45.000000	17.443921	2145.575119	2991.001507	33.123098	-24.658942	2518.337536	159.426425	16.532106	14.041155	-45.000000	20.868490	36.532754	-16.853739	45.000000	2625.131622	-5453.963234	135.123708	23.557594	1429.452038	-322.075574	14.387702	-21.486422	
8.4900	-90.000000	90.000000	-90.000000	-124.725109	859.730440	-42.563501	30.621052	33.881665	45.000000	45.000000	17.354655	2145.494230	2991.011992	33.073502	-24.955774	2518.325109	159.547586	16.584149	14.023954	-45.000000	20.951616	36.499981	-16.933825	45.000000	2625.205603	-5453.941689	135.152369	23.828036	1429.484311	-321.959368	14.312290	-21.588352	
8.5000	-90.000000	90.000000	-90.000000	-124.149899	859.420127	-42.382849	30.617923	33.880795	45.000000	45.000000	17.247201	2145.397360	2991.033518	33.036070	-25.275849	2518.303187	159.621367	16.623547	14.016650	-45.000000	21.036409	36.473901	-17.015538	45.000000	2625.288457	-5453.918201	135.186253	24.145286	1429.523325	-321.847348	14.242863	-21.676933	
8.5100	-90.000000	90.000000	-90.000000	-123.480823	859.122016	-42.208890	30.617707	33.869901	45.000000	45.000000	17.139412	2145.313806	2991.046576	32.968330	-25.617526	2518.286038	159.649248	16.647342	14.014174	-45.000000	21.113105	36.451302	-17.100822	45.000000	2625.386938	-5453.894458	135.229051	24.513402	1429.565393	-321.734929	14.184651	-21.759128	
8.5200	-90.000000	90.000000	-90.000000	-122.708771	858.838114	-42.044118	30.615054	33.867407	45.000000	45.000000	17.017920	2145.215297	2991.066436	32.904405	-25.986407	2518.263078	159.635967	16.661473	14.016518	-45.000000	21.186052	36.447537	-17.180570	45.000000	2625.481427	-5453.875158	135.280795	24.939779	1429.623536	-321.617651	14.132966	-21.828978	
8.5300	-90.000000	90.000000	-90.000000	-121.826552	858.568293	-41.890301	30.612773	33.862463	45.000000	45.000000	16.893021	2145.118723	2991.080695	32.822390	-26.380461	2518.242711	159.584574	16.662104	14.035409	-45.000000	21.251441	36.452871	-17.256407	45.000000	2625.581957	-5453.855792	135.348292	25.425584	1429.685723	-321.491233	14.090769	-21.895480	
